# xmcd CD database file
#
# Track frame offsets:
#	150
#	20897
#	38617
#	67845
#	128138
#	146230
#	173870
#	211856
#	220164
#	263138
#
# Disc length: 3757 seconds
#
# Revision: 0
# Processed by: cddbd v1.5.2PL0 Copyright (c) Steve Scherf et al.
# Submitted via: CDex 1.51
#
DISCID=920eab0a
DTITLE=Various Artist - Basingstoke Blues Club Live 2003 CD1
DYEAR=2003
DGENRE=Blues
TTITLE0=John Crampton-Million Miles
TTITLE1=John Crampton-Pick a Bale Of Cotton
TTITLE2=Lee Ryder Band-I Loved Another Woman
TTITLE3=Lee Ryder Band-Little Wing
TTITLE4=The Elevators-3 O'Clock Blues
TTITLE5=The Elevators-Double Trouble
TTITLE6=AM5-Red House
TTITLE7=AM5-I Ain't Got You
TTITLE8=Honeyboy Hickling And The DTs-Little Brown Bird
TTITLE9=Honeyboy Hickling And The DTs-Come On Over Here
EXTD=YEAR: 2003
EXTT0=
EXTT1=
EXTT2=
EXTT3=
EXTT4=
EXTT5=
EXTT6=
EXTT7=
EXTT8=
EXTT9=
PLAYORDER=
